<svg width="24" height="24" viewBox="0 0 24 24" fill="none" xmlns="http://www.w3.org/2000/svg">
<path d="M12.0001 19C19.6301 19 21.9301 12.38 21.9501 12.32C22.0201 12.11 22.0201 11.89 21.9501 11.69C21.9301 11.62 19.6301 5.01 12.0001 5.01C4.37006 5.01 2.07006 11.62 2.05006 11.68C1.98006 11.89 1.98006 12.11 2.05006 12.31C2.07006 12.38 4.37006 18.99 12.0001 18.99V19ZM12.0001 9C13.6401 9 15.0001 10.36 15.0001 12C15.0001 13.64 13.6401 15 12.0001 15C10.3601 15 9.00006 13.64 9.00006 12C9.00006 10.36 10.3601 9 12.0001 9Z" fill="#E9E9E9"/>
</svg>
