<svg width="24" height="24" viewBox="0 0 24 24" fill="none" xmlns="http://www.w3.org/2000/svg">
<mask id="mask0_9_43" style="mask-type:luminance" maskUnits="userSpaceOnUse" x="3" y="3" width="18" height="18">
<path d="M21 3H3V21H21V3Z" fill="white"/>
</mask>
<g mask="url(#mask0_9_43)">
<path fill-rule="evenodd" clip-rule="evenodd" d="M7.5 6.75001H6.75001V7.5H5.25V5.25H7.5V6.75001ZM5.25 9.00001V11.25H6.75001V9.00001H5.25ZM5.25 15V12.75H6.75001V15H5.25ZM17.25 9.00001V11.25H18.75V9.00001H17.25ZM9.00001 5.25H11.25V6.75001H9.00001V5.25ZM15 5.25H12.75V6.75001H15V5.25ZM9.00001 17.25H11.25V18.75H9.00001V17.25ZM6.75001 17.25V16.5H5.25V18.75H7.5V17.25H6.75001ZM17.25 6.75001V7.5H18.75V5.25H16.5V6.75001H17.25ZM18 16.5V14.25H16.5V16.5H14.25V18H16.5V20.25H18V18H20.25V16.5H18Z" fill="black"/>
</g>
</svg>
