<svg width="24" height="24" viewBox="0 0 24 24" fill="none" xmlns="http://www.w3.org/2000/svg">
<path fill-rule="evenodd" clip-rule="evenodd" d="M14.56 3.146L20.925 9.51L9.96499 20.47C9.11788 21.2973 7.97883 21.7575 6.79475 21.7506C5.61068 21.7438 4.47702 21.2705 3.63954 20.4334C2.80206 19.5963 2.32826 18.4629 2.32086 17.2788C2.31345 16.0948 2.77304 14.9555 3.59999 14.108L14.56 3.148V3.146ZM14.56 5.975L5.01599 15.52C4.56059 15.9915 4.3086 16.623 4.3143 17.2785C4.32 17.934 4.58292 18.561 5.04644 19.0245C5.50996 19.4881 6.13699 19.751 6.79248 19.7567C7.44798 19.7624 8.07948 19.5104 8.55099 19.055L18.097 9.509L14.562 5.974L14.56 5.975Z" fill="#8CFF45"/>
<path fill-rule="evenodd" clip-rule="evenodd" d="M15.355 12.528C14.617 12.326 13.591 12.271 12.376 12.878C10.64 13.746 9.046 13.82 7.9 13.68C7.43505 13.6253 6.97676 13.5242 6.532 13.378C6.35042 13.3166 6.17188 13.2465 5.997 13.168L5.985 13.163L5.981 13.161H5.979C5.979 13.16 5.977 13.159 6.5 12.261L7.022 11.361L7.019 11.36L7.027 11.364L7.084 11.388C7.13867 11.412 7.225 11.444 7.343 11.484C7.577 11.561 7.923 11.654 8.35 11.706C9.203 11.81 10.36 11.753 11.624 11.121C13.409 10.229 14.974 10.305 16.077 10.607C16.623 10.757 17.057 10.963 17.358 11.132C17.5271 11.2284 17.6903 11.3346 17.847 11.45L17.857 11.459L17.862 11.462L17.863 11.464L17.182 12.261C16.499 13.057 16.499 13.058 16.5 13.058L16.501 13.059L16.503 13.061L16.498 13.057C16.4117 12.9956 16.3223 12.9389 16.23 12.887C15.9536 12.7332 15.6598 12.6126 15.355 12.528ZM12.793 2.793C12.9805 2.60553 13.2348 2.50021 13.5 2.50021C13.7652 2.50021 14.0195 2.60553 14.207 2.793L21.278 9.864C21.4602 10.0526 21.561 10.3052 21.5587 10.5674C21.5564 10.8296 21.4512 11.0804 21.2658 11.2658C21.0804 11.4512 20.8296 11.5564 20.5674 11.5587C20.3052 11.561 20.0526 11.4602 19.864 11.278L12.793 4.208C12.7 4.11513 12.6263 4.00484 12.5759 3.88344C12.5256 3.76204 12.4997 3.63192 12.4997 3.5005C12.4997 3.36908 12.5256 3.23896 12.5759 3.11756C12.6263 2.99616 12.7 2.88587 12.793 2.793Z" fill="#8CFF45"/>
</svg>
