<svg width="18" height="18" viewBox="0 0 18 18" fill="none" xmlns="http://www.w3.org/2000/svg">
<path fill-rule="evenodd" clip-rule="evenodd" d="M9.00009 11.122L14.3031 16.425C14.5845 16.7064 14.9661 16.8645 15.3641 16.8645C15.762 16.8645 16.1437 16.7064 16.4251 16.425C16.7065 16.1436 16.8646 15.7619 16.8646 15.364C16.8646 14.966 16.7065 14.5844 16.4251 14.303L11.1201 8.99999L16.4241 3.69699C16.5634 3.55766 16.6738 3.39226 16.7492 3.21024C16.8245 3.02821 16.8633 2.83313 16.8632 2.63613C16.8632 2.43914 16.8243 2.24407 16.7489 2.06209C16.6735 1.8801 16.5629 1.71475 16.4236 1.57549C16.2843 1.43622 16.1189 1.32576 15.9368 1.25042C15.7548 1.17507 15.5597 1.13631 15.3627 1.13636C15.1657 1.13641 14.9707 1.17526 14.7887 1.25069C14.6067 1.32612 14.4414 1.43666 14.3021 1.57599L9.00009 6.87899L3.69709 1.57599C3.55879 1.43266 3.39333 1.31831 3.21036 1.23961C3.02739 1.16091 2.83058 1.11944 2.63141 1.11762C2.43224 1.11579 2.23471 1.15365 2.05033 1.22899C1.86595 1.30432 1.69842 1.41562 1.55752 1.55639C1.41661 1.69717 1.30515 1.86459 1.22964 2.0489C1.15414 2.23321 1.11609 2.43071 1.11773 2.62988C1.11936 2.82905 1.16065 3.02589 1.23917 3.20894C1.3177 3.39198 1.43189 3.55755 1.57509 3.69599L6.88009 8.99999L1.57609 14.304C1.43289 14.4424 1.3187 14.608 1.24017 14.791C1.16165 14.9741 1.12036 15.1709 1.11873 15.3701C1.11709 15.5693 1.15514 15.7668 1.23064 15.9511C1.30615 16.1354 1.41761 16.3028 1.55852 16.4436C1.69942 16.5844 1.86695 16.6957 2.05133 16.771C2.23571 16.8463 2.43324 16.8842 2.63241 16.8824C2.83158 16.8805 3.02839 16.8391 3.21136 16.7604C3.39433 16.6817 3.55979 16.5673 3.69809 16.424L9.00009 11.122Z" fill="#717171"/>
</svg>
