<svg width="16" height="16" viewBox="0 0 16 16" fill="none" xmlns="http://www.w3.org/2000/svg">
<path d="M13.9983 2.65458L12.5159 1.1954C12.2588 0.942223 11.9099 0.79999 11.5462 0.799988L6.62855 0.799988C5.87112 0.799988 5.25712 1.40439 5.25712 2.14999V3.49999H2.9714C2.21398 3.49999 1.59998 4.10439 1.59998 4.84999V13.85C1.59998 14.5956 2.21398 15.2 2.9714 15.2H9.3714C10.1288 15.2 10.7428 14.5956 10.7428 13.85V12.5H13.0285C13.786 12.5 14.4 11.8956 14.4 11.15V3.60917C14.4 3.25113 14.2555 2.90775 13.9983 2.65458ZM9.19998 13.85H3.14283C3.09737 13.85 3.05376 13.8322 3.02161 13.8006C2.98947 13.7689 2.9714 13.726 2.9714 13.6812V5.01874C2.9714 4.97398 2.98947 4.93106 3.02161 4.89941C3.05376 4.86777 3.09737 4.84999 3.14283 4.84999H5.25712V11.15C5.25712 11.8956 5.87112 12.5 6.62855 12.5H9.3714V13.6812C9.3714 13.726 9.35334 13.7689 9.32119 13.8006C9.28904 13.8322 9.24544 13.85 9.19998 13.85ZM12.8571 11.15H6.79998C6.75451 11.15 6.71091 11.1322 6.67876 11.1006C6.64661 11.0689 6.62855 11.026 6.62855 10.9812V2.31874C6.62855 2.27398 6.64661 2.23106 6.67876 2.19941C6.71091 2.16777 6.75451 2.14999 6.79998 2.14999H9.82855V4.62499C9.82855 4.99778 10.1355 5.29999 10.5143 5.29999H13.0285V10.9812C13.0285 11.026 13.0105 11.0689 12.9783 11.1006C12.9462 11.1322 12.9026 11.15 12.8571 11.15ZM13.0285 3.94999H11.2V2.14999H11.4752C11.5206 2.14999 11.5642 2.16776 11.5964 2.1994L12.9783 3.55975C12.9943 3.57543 13.0069 3.59403 13.0155 3.61451C13.0241 3.63498 13.0285 3.65693 13.0285 3.67909V3.94999Z" fill="#717171"/>
</svg>
