<svg width="16" height="16" viewBox="0 0 16 16" fill="none" xmlns="http://www.w3.org/2000/svg">
<g clip-path="url(#clip0_25_21)">
<path d="M12.8657 2.17566C12.9857 2.0561 13.1467 1.98668 13.316 1.98151C13.4853 1.97634 13.6502 2.03581 13.7772 2.14783C13.9043 2.25985 13.9839 2.41603 14 2.58465C14.0161 2.75326 13.9673 2.92167 13.8637 3.05566L13.8084 3.11833L10.6131 6.31366H12.3371C12.507 6.31385 12.6704 6.37892 12.794 6.49556C12.9175 6.61221 12.9919 6.77163 13.0018 6.94126C13.0118 7.11089 12.9566 7.27792 12.8475 7.40822C12.7385 7.53852 12.5838 7.62226 12.4151 7.64233L12.3371 7.647H9.00372C8.84044 7.64697 8.68283 7.58702 8.56081 7.47852C8.43879 7.37001 8.36083 7.2205 8.34172 7.05833L8.33706 6.98033V3.647C8.33725 3.47708 8.40231 3.31364 8.51896 3.19009C8.6356 3.06653 8.79503 2.99217 8.96465 2.98222C9.13428 2.97226 9.30131 3.02745 9.43161 3.13651C9.56192 3.24557 9.64566 3.40027 9.66573 3.569L9.67039 3.647V5.371L12.8657 2.17566ZM7.00092 8.33451C7.16421 8.33454 7.32181 8.39449 7.44383 8.50299C7.56586 8.6115 7.64382 8.76101 7.66292 8.92318L7.66759 9.00118V12.3345C7.6674 12.5044 7.60233 12.6679 7.48569 12.7914C7.36904 12.915 7.20962 12.9893 7.03999 12.9993C6.87036 13.0093 6.70333 12.9541 6.57303 12.845C6.44273 12.7359 6.35899 12.5812 6.33892 12.4125L6.33425 12.3345V10.6105L3.13892 13.8058C3.01895 13.9254 2.85796 13.9948 2.68866 14C2.51936 14.0052 2.35444 13.9457 2.2274 13.8337C2.10036 13.7217 2.02072 13.5655 2.00465 13.3969C1.98859 13.2282 2.03731 13.0598 2.14092 12.9258L2.19625 12.8632L5.39159 9.66785H3.66759C3.49767 9.66766 3.33423 9.6026 3.21067 9.48595C3.08712 9.3693 3.01276 9.20988 3.0028 9.04025C2.99285 8.87062 3.04804 8.70359 3.1571 8.57329C3.26616 8.44299 3.42086 8.35925 3.58959 8.33918L3.66759 8.33451H7.00092Z" fill="#717171"/>
</g>
<defs>
<clipPath id="clip0_25_21">
<rect width="16" height="16" fill="white"/>
</clipPath>
</defs>
</svg>
