<svg width="18" height="18" viewBox="0 0 18 18" fill="none" xmlns="http://www.w3.org/2000/svg">
<g clip-path="url(#clip0_2_44)">
<path fill-rule="evenodd" clip-rule="evenodd" d="M4.5 3.75001H3.75001V4.5H2.25V2.25H4.5V3.75001ZM2.25 6.00001V8.25001H3.75001V6.00001H2.25ZM2.25 12V9.74999H3.75001V12H2.25ZM14.25 6.00001V8.25001H15.75V6.00001H14.25ZM6.00001 2.25H8.25001V3.75001H6.00001V2.25ZM12 2.25H9.74999V3.75001H12V2.25ZM6.00001 14.25H8.25001V15.75H6.00001V14.25ZM3.75001 14.25V13.5H2.25V15.75H4.5V14.25H3.75001ZM14.25 3.75001V4.5H15.75V2.25H13.5V3.75001H14.25ZM15 13.5V11.25H13.5V13.5H11.25V15H13.5V17.25H15V15H17.25V13.5H15Z" fill="white"/>
</g>
<defs>
<clipPath id="clip0_2_44">
<rect width="18" height="18" fill="white"/>
</clipPath>
</defs>
</svg>
